<?xml version="1.0" standalone="no"?>
<!DOCTYPE svg PUBLIC "-//W3C//DTD SVG 20010904//EN"
 "http://www.w3.org/TR/2001/REC-SVG-20010904/DTD/svg10.dtd">
<svg version="1.0" xmlns="http://www.w3.org/2000/svg"
 width="400.000000pt" height="400.000000pt" viewBox="0 0 400.000000 400.000000"
 preserveAspectRatio="xMidYMid meet">
<metadata>
Created by potrace 1.11, written by Peter Selinger 2001-2013
</metadata>
<g transform="translate(0.000000,400.000000) scale(0.100000,-0.100000)"
fill="#000000" stroke="none">
<path d="M439 3910 c-2 -9 -2 -10 51 -215 28 -109 53 -202 57 -208 3 -6 7 -78
8 -161 l1 -151 49 0 49 0 2 145 c2 142 3 150 58 356 31 116 56 218 56 226 0
10 -12 14 -47 13 l-48 -1 -31 -147 c-18 -82 -34 -150 -36 -153 -4 -3 -30 95
-42 159 -20 97 -30 137 -35 138 -25 4 -91 4 -92 -1z"/>
<path d="M893 3912 c-31 -5 -70 -48 -77 -85 -3 -18 -5 -156 -3 -307 2 -290 4
-301 50 -330 31 -19 174 -21 218 -3 62 24 66 47 65 363 -1 294 -6 326 -50 350
-22 11 -156 20 -203 12z m152 -364 c0 -139 -4 -259 -8 -265 -5 -8 -29 -13 -57
-13 -28 0 -52 5 -57 13 -10 16 -12 498 -1 519 10 21 86 29 108 11 13 -10 15
-51 15 -265z"/>
<path d="M1232 3578 l3 -338 31 -31 c29 -29 37 -31 106 -34 94 -3 137 11 161
52 16 29 18 61 20 357 2 283 0 326 -13 328 -39 3 -66 4 -77 0 -9 -3 -12 -84
-12 -313 0 -171 -3 -314 -6 -320 -9 -13 -91 -11 -103 4 -6 7 -10 122 -10 307
0 162 -1 302 -1 310 -1 12 -13 16 -51 16 l-51 0 3 -338z"/>
<path d="M1646 3911 c-2 -3 -3 -170 -2 -371 l1 -365 50 0 50 0 0 148 0 148 29
-3 30 -3 29 -140 c16 -77 31 -142 32 -144 2 -2 25 -5 51 -6 53 -4 50 -19 19
120 -40 178 -40 183 -18 207 30 33 34 53 34 195 1 202 -10 215 -187 218 -63 1
-116 -1 -118 -4z m192 -103 c16 -14 17 -219 0 -236 -13 -13 -87 -17 -89 -4 -6
40 -4 240 3 248 9 12 67 7 86 -8z"/>
<path d="M2091 3365 c0 -420 2 -545 12 -546 7 0 283 -1 615 -1 l602 -1 1 -26
c1 -31 1 -1454 0 -1528 l-1 -52 -487 1 -488 0 1 246 c1 136 2 253 3 260 1 10
30 12 123 10 l123 -3 97 -147 c63 -95 104 -148 116 -149 85 -2 284 -1 286 2 2
2 -52 80 -120 172 -68 92 -124 170 -124 172 0 3 14 12 31 21 44 22 123 103
147 150 78 154 49 374 -68 507 -52 58 -121 104 -188 123 -48 14 -313 20 -627
15 l-50 -1 0 -810 c0 -541 3 -810 10 -811 12 -1 1364 -1 1422 0 l42 1 -2 1047
-2 1046 -612 0 -613 0 -1 51 c0 28 -1 194 -1 370 l-1 318 -114 54 c-63 30
-119 54 -123 54 -6 0 -9 -234 -9 -545z m619 -1051 c138 -75 141 -267 5 -338
-35 -18 -61 -21 -205 -24 l-165 -3 1 193 c1 106 2 194 3 196 1 2 72 2 159 2
146 -2 160 -3 202 -26z"/>
<path d="M447 3058 c-11 -7 -17 -2061 -6 -2080 5 -7 214 -11 640 -12 l634 -1
0 -384 0 -384 123 -58 122 -58 0 565 0 564 -32 0 c-18 1 -305 2 -638 3 l-605
2 -1 801 -1 802 501 0 c276 0 508 -1 516 -4 13 -3 15 -59 15 -434 0 -278 -3
-431 -10 -433 -5 -2 -127 -4 -270 -3 l-260 1 -3 323 -2 322 -50 1 c-28 1 -59
1 -70 1 -11 0 -44 0 -73 -1 l-52 -1 0 -580 0 -580 32 -1 c18 0 62 0 98 0 36 0
76 0 90 0 l25 1 0 149 0 149 273 -1 272 -2 0 -147 0 -148 55 -1 c30 0 85 -1
123 -2 l67 -2 0 818 0 817 -22 1 c-128 5 -1483 2 -1491 -3z"/>
<path d="M2119 805 c-5 -83 -7 -80 44 -78 l47 2 1 -137 c0 -75 0 -221 0 -324
l1 -188 49 2 c46 1 49 2 50 27 1 14 1 160 1 323 l-1 297 27 -1 c67 -1 68 -1
71 47 l2 45 -146 0 c-122 0 -145 -2 -146 -15z"/>
<path d="M2460 451 l0 -369 125 1 125 1 0 43 c0 27 -5 44 -12 44 -7 1 -33 3
-58 4 -25 1 -52 3 -61 4 -14 1 -16 18 -16 119 l0 119 51 1 c28 0 57 1 64 1 8
1 12 17 12 46 l0 45 -63 0 -64 0 0 108 0 109 46 0 c110 2 101 -2 101 48 l0 45
-125 0 -125 0 0 -369z"/>
<path d="M2806 789 l-31 -27 -3 -341 -3 -341 51 1 50 2 0 133 0 134 55 0 55 0
0 -134 0 -134 48 2 47 1 3 323 c3 416 4 415 -161 411 -72 -2 -83 -4 -111 -30z
m162 -71 c8 -8 12 -49 12 -143 l0 -133 -55 0 -55 1 0 133 c0 113 2 134 17 142
22 13 65 12 81 0z"/>
<path d="M3166 463 c1 -197 2 -364 3 -371 1 -8 16 -11 49 -10 l47 3 -1 95 c-1
52 -3 145 -4 205 -1 61 -1 115 0 120 1 6 15 -51 31 -125 39 -181 33 -168 77
-165 l37 2 32 153 c18 84 34 154 36 156 2 2 2 -33 1 -79 -2 -45 -4 -145 -5
-221 l-3 -139 29 -4 c16 -2 39 -2 51 1 l23 6 0 366 -1 365 -56 -3 -57 -3 -31
-145 c-18 -80 -37 -172 -44 -205 -13 -63 -22 -59 -34 16 -3 19 -19 99 -36 178
-16 79 -30 147 -30 152 0 5 -26 9 -58 9 l-57 0 1 -357z"/>
</g>
</svg>
